HIERARCHY
ROOT Pelvis
{
	OFFSET 0.000000 0.000000 0.000000
	CHANNELS 6 Xposition Yposition Zposition Xrotation Yrotation Zrotation
	JOINT LeftUpLeg_virtual
	{
		OFFSET 0.000000 0.000000 0.000000
		CHANNELS 3 Xrotation Yrotation Zrotation
		JOINT LeftUpLeg
		{
			OFFSET 18.735201 -5.666702 -4.541200
			CHANNELS 3 Xrotation Yrotation Zrotation
			JOINT LeftLeg
			{
				OFFSET -0.021200 -31.938179 0.493100
				CHANNELS 3 Xrotation Yrotation Zrotation
				JOINT LeftFoot
				{
					OFFSET 0.021200 -31.938179 -4.336299
					CHANNELS 3 Xrotation Yrotation Zrotation
					JOINT LeftToeBase
					{
						OFFSET 0.943001 -26.722000 15.023500
						CHANNELS 3 Xrotation Yrotation Zrotation
						End Site
						{
							OFFSET 0 0 0
						}
					}
				}
			}
		}
	}
	JOINT RightUpLeg_virtual
	{
		OFFSET 0.000000 0.000000 0.000000
		CHANNELS 3 Xrotation Yrotation Zrotation
		JOINT RightUpLeg
		{
			OFFSET -18.735201 -5.666702 -4.541200
			CHANNELS 3 Xrotation Yrotation Zrotation
			JOINT RightLeg
			{
				OFFSET 0.018946 -31.938133 0.493100
				CHANNELS 3 Xrotation Yrotation Zrotation
				JOINT RightFoot
				{
					OFFSET -0.018946 -31.938126 -4.336299
					CHANNELS 3 Xrotation Yrotation Zrotation
					JOINT RightToeBase
					{
						OFFSET -0.943001 -26.722004 15.023500
						CHANNELS 3 Xrotation Yrotation Zrotation
						End Site
						{
							OFFSET 0 0 0
						}
					}
				}
			}
		}
	}
	JOINT Hips_virtual
	{
		OFFSET 0.000000 0.000000 0.000000
		CHANNELS 3 Xrotation Yrotation Zrotation
		JOINT Hips
		{
			OFFSET -0.000000 -0.000000 -0.000000
			CHANNELS 3 Xrotation Yrotation Zrotation
			JOINT Spine
			{
				OFFSET 0.000000 10.199997 -0.299500
				CHANNELS 3 Xrotation Yrotation Zrotation
				JOINT Spine1
				{
					OFFSET 0.000000 11.900002 -1.516600
					CHANNELS 3 Xrotation Yrotation Zrotation
					JOINT Spine2
					{
						OFFSET 0.000000 13.600006 -2.842500
						CHANNELS 3 Xrotation Yrotation Zrotation
						JOINT Neck_virtual
						{
							OFFSET 0.000000 0.000000 0.000000
							CHANNELS 3 Xrotation Yrotation Zrotation
							JOINT Neck
							{
								OFFSET 0.000000 9.624100 -2.890100
								CHANNELS 3 Xrotation Yrotation Zrotation
								JOINT Head
								{
									OFFSET 0.000000 14.068802 -1.351900
									CHANNELS 3 Xrotation Yrotation Zrotation
									End Site
									{
										OFFSET 0 0 0
									}
								}
							}
						}
						JOINT LeftShoulder_virtual
						{
							OFFSET 0.000000 0.000000 0.000000
							CHANNELS 3 Xrotation Yrotation Zrotation
							JOINT LeftShoulder
							{
								OFFSET 15.263000 10.923401 -0.547700
								CHANNELS 3 Xrotation Yrotation Zrotation
								JOINT LeftArm
								{
									OFFSET 25.438599 -2.830597 -13.032500
									CHANNELS 3 Xrotation Yrotation Zrotation
									JOINT LeftForeArm
									{
										OFFSET 29.960503 0.000000 0.000000
										CHANNELS 3 Xrotation Yrotation Zrotation
										JOINT LeftHand
										{
											OFFSET 27.849251 0.000000 0.000000
											CHANNELS 3 Xrotation Yrotation Zrotation
											End Site
											{
												OFFSET 0 0 0
											}
										}
									}
								}
							}
						}
						JOINT RightShoulder_virtual
						{
							OFFSET 0.000000 0.000000 0.000000
							CHANNELS 3 Xrotation Yrotation Zrotation
							JOINT RightShoulder
							{
								OFFSET -15.263000 10.923401 -0.547700
								CHANNELS 3 Xrotation Yrotation Zrotation
								JOINT RightArm
								{
									OFFSET -25.438599 -2.830597 -13.032500
									CHANNELS 3 Xrotation Yrotation Zrotation
									JOINT RightForeArm
									{
										OFFSET -29.960503 0.000000 0.000000
										CHANNELS 3 Xrotation Yrotation Zrotation
										JOINT RightHand
										{
											OFFSET -27.849251 0.000000 0.000000
											CHANNELS 3 Xrotation Yrotation Zrotation
											End Site
											{
												OFFSET 0 0 0
											}
										}
									}
								}
							}
						}
					}
				}
			}
		}
	}
}
MOTION
Frames: 11
Frame Time: 0.03333333
0.240844 84.498070 2.944490 0.000000 0.000000 0.000000 -14.105903 4.532477 -0.104806 -21.660442 -4.929051 16.758176 61.522253 -1.785243 0.174978 -24.860442 -0.322805 -14.605630 0.000000 0.000000 0.000000 -14.105903 4.532477 -0.104806 -13.958625 -8.105648 -18.417755 59.780766 1.435398 -0.212855 -30.094940 -5.209004 13.131238 0.000000 0.000000 0.000000 -14.105903 4.532477 -0.104806 -0.000001 0.000000 0.000000 20.019139 -0.089954 0.600771 6.967088 -0.338070 0.675294 0.000000 0.000000 0.000000 6.967315 -0.337864 0.674353 -2.448873 -0.257673 -0.077649 0.000000 0.000000 0.000000 6.967315 -0.337864 0.674353 3.082218 -9.945117 -6.811322 -13.959279 -7.908220 -60.295291 69.634325 -63.509100 71.597130 0.000000 0.000000 0.000000 6.967315 -0.337864 0.674353 8.709540 -2.418525 18.823136 -21.494472 12.934334 56.855499 76.344166 65.516991 -70.724587 0.000000 0.000000 0.000000 
0.247132 84.493645 2.942570 0.000000 0.000000 0.000000 -14.083115 4.545062 -0.114316 -21.710747 -4.920082 16.769868 61.545776 -1.833628 0.174926 -24.863320 -0.310329 -14.576168 0.000000 0.000000 0.000000 -14.083115 4.545062 -0.114316 -13.979140 -8.113897 -18.414415 59.777119 1.436620 -0.212833 -30.090730 -5.214674 13.134889 0.000000 0.000000 0.000000 -14.083115 4.545062 -0.114316 0.000001 0.000000 0.000000 20.019083 -0.090038 0.600225 6.967163 -0.337049 0.675000 0.000000 0.000000 0.000000 6.967388 -0.336797 0.673819 -2.453804 -0.258117 -0.078663 0.000000 0.000000 0.000000 6.967388 -0.336797 0.673819 3.081950 -9.940220 -6.846197 -13.919035 -8.007091 -60.186561 69.508397 -63.495228 71.476154 0.000000 0.000000 0.000000 6.967388 -0.336797 0.673819 8.719993 -2.431949 18.863524 -21.419384 13.027291 56.754132 76.284095 65.521554 -70.684344 0.000000 0.000000 0.000000 
0.262452 84.486801 2.939522 0.000000 0.000000 0.000000 -14.048049 4.577386 -0.129057 -21.799237 -4.907428 16.784292 61.588868 -1.920326 0.174773 -24.867100 -0.292205 -14.519198 0.000000 0.000000 0.000000 -14.048049 4.577386 -0.129057 -14.001854 -8.134763 -18.413307 59.763288 1.437016 -0.212745 -30.082875 -5.227138 13.146708 0.000000 0.000000 0.000000 -14.048049 4.577386 -0.129057 0.000000 0.000000 0.000000 20.019151 -0.090267 0.598880 6.967765 -0.333986 0.674075 0.000000 0.000000 0.000000 6.967983 -0.333704 0.672075 -2.466888 -0.260153 -0.080415 0.000000 0.000000 0.000000 6.967983 -0.333704 0.672075 3.081508 -9.932727 -6.899785 -13.772137 -8.303076 -59.856595 69.210498 -63.491205 71.193623 0.000000 0.000000 0.000000 6.967983 -0.333704 0.672075 8.739782 -2.465332 18.929304 -21.199620 13.256775 56.475576 76.163993 65.580362 -70.597436 0.000000 0.000000 0.000000 
0.282892 84.485176 2.943066 0.000000 0.000000 0.000000 -14.041754 4.621861 -0.130274 -21.841938 -4.913712 16.770787 61.617254 -1.962537 0.174648 -24.870636 -0.292425 -14.479304 0.000000 0.000000 0.000000 -14.041754 4.621861 -0.130274 -13.975877 -8.164765 -18.429556 59.735994 1.433897 -0.212521 -30.081519 -5.239082 13.169068 0.000000 0.000000 0.000000 -14.041754 4.621861 -0.130274 0.000001 0.000000 0.000000 20.019498 -0.090792 0.596289 6.970448 -0.329655 0.671556 0.000000 0.000000 0.000000 6.970665 -0.329433 0.668393 -2.488356 -0.264561 -0.081361 0.000000 0.000000 0.000000 6.970665 -0.329433 0.668393 3.083197 -9.935516 -6.902657 -13.503001 -8.789846 -59.312366 68.869754 -63.545976 70.887180 0.000000 0.000000 0.000000 6.970665 -0.329433 0.668393 8.752992 -2.509400 18.951109 -20.864447 13.561954 56.069303 76.084394 65.725736 -70.530419 0.000000 0.000000 0.000000 
0.310059 84.485794 2.969788 0.000000 0.000000 0.000000 -14.042865 4.678703 -0.119221 -21.843269 -4.952472 16.720834 61.636979 -1.952340 0.174851 -24.892653 -0.298305 -14.462553 0.000000 0.000000 0.000000 -14.042865 4.678703 -0.119221 -13.909291 -8.212176 -18.469161 59.694590 1.435379 -0.212037 -30.101026 -5.250628 13.202157 0.000000 0.000000 0.000000 -14.042865 4.678703 -0.119221 0.000001 0.000000 0.000000 20.021532 -0.091301 0.589846 6.977813 -0.325596 0.664433 0.000000 0.000000 0.000000 6.978044 -0.325379 0.661027 -2.522219 -0.270964 -0.082248 0.000000 0.000000 0.000000 6.978044 -0.325379 0.661027 3.089943 -9.968826 -6.840614 -13.142229 -9.459943 -58.568647 68.458556 -63.706233 70.544694 0.000000 0.000000 0.000000 6.978044 -0.325379 0.661027 8.761114 -2.565049 18.941638 -20.443543 13.957699 55.550782 76.088826 65.933810 -70.543000 0.000000 0.000000 0.000000 
0.337206 84.491104 3.004545 0.000000 0.000000 0.000000 -14.044725 4.754232 -0.103837 -21.833267 -5.011231 16.657593 61.641679 -1.932726 0.175131 -24.909649 -0.304744 -14.451726 0.000000 0.000000 0.000000 -14.044725 4.754232 -0.103837 -13.813813 -8.269739 -18.504277 59.632613 1.438752 -0.211075 -30.125547 -5.281739 13.233894 0.000000 0.000000 0.000000 -14.044725 4.754232 -0.103837 0.000000 0.000000 0.000000 20.022676 -0.088316 0.584352 6.981994 -0.314809 0.657667 0.000000 0.000000 0.000000 6.982243 -0.315204 0.653111 -2.540182 -0.280819 -0.082756 0.000000 0.000000 0.000000 6.982243 -0.315204 0.653111 3.085359 -10.037141 -6.697424 -12.499238 -10.379425 -57.462709 67.538516 -64.103921 69.660444 0.000000 0.000000 0.000000 6.982243 -0.315204 0.653111 8.775600 -2.636161 18.873419 -19.699582 14.413905 54.727427 75.983805 66.535277 -70.472840 0.000000 0.000000 0.000000 
0.360061 84.510796 3.041800 0.000000 0.000000 0.000000 -14.073177 4.848593 -0.085209 -21.782651 -5.069491 16.598664 61.606155 -1.926900 0.175147 -24.905424 -0.315208 -14.436745 0.000000 0.000000 0.000000 -14.073177 4.848593 -0.085209 -13.654002 -8.341512 -18.521448 59.525140 1.441261 -0.209739 -30.140296 -5.334543 13.258386 0.000000 0.000000 0.000000 -14.073177 4.848593 -0.085209 0.000000 0.000000 0.000000 20.021234 -0.077787 0.582268 6.979993 -0.290164 0.652439 0.000000 0.000000 0.000000 6.980283 -0.290652 0.647076 -2.529758 -0.299682 -0.082187 0.000000 0.000000 0.000000 6.980283 -0.290652 0.647076 3.065989 -10.097435 -6.449462 -11.567995 -11.730444 -55.979428 65.753179 -64.570457 67.823000 0.000000 0.000000 0.000000 6.980283 -0.290652 0.647076 8.764856 -2.748728 18.669180 -18.578792 14.943817 53.540685 75.831376 67.486845 -70.381684 0.000000 0.000000 0.000000 
0.382167 84.558884 3.087730 0.000000 0.000000 0.000000 -14.151431 4.964534 -0.066285 -21.641055 -5.131184 16.541023 61.499686 -1.924392 0.174796 -24.875139 -0.327982 -14.418869 0.000000 0.000000 0.000000 -14.151431 4.964534 -0.066285 -13.375629 -8.447993 -18.517642 59.320398 1.440236 -0.207829 -30.126936 -5.398417 13.279353 0.000000 0.000000 0.000000 -14.151431 4.964534 -0.066285 -0.000001 0.000000 0.000000 20.012475 -0.063349 0.583209 6.969432 -0.259914 0.652488 0.000000 0.000000 0.000000 6.969812 -0.259736 0.647954 -2.462796 -0.318538 -0.080348 0.000000 0.000000 0.000000 6.969812 -0.259736 0.647954 3.017634 -10.229497 -6.129462 -10.245637 -13.223788 -53.977370 63.314296 -65.422632 65.369405 0.000000 0.000000 0.000000 6.969812 -0.259736 0.647954 8.684294 -2.841503 18.243154 -17.043692 15.499554 51.962573 75.363918 69.048008 -70.009138 0.000000 0.000000 0.000000 
0.406230 84.645172 3.141617 0.000000 0.000000 0.000000 -14.274746 5.114456 -0.058994 -21.405992 -5.219878 16.483567 61.305934 -1.918961 0.174086 -24.806789 -0.336283 -14.399738 0.000000 0.000000 0.000000 -14.274746 5.114456 -0.058994 -12.957031 -8.607158 -18.474238 58.969818 1.433740 -0.204666 -30.061544 -5.478300 13.295289 0.000000 0.000000 0.000000 -14.274746 5.114456 -0.058994 -0.000001 0.000000 0.000000 19.988458 -0.050693 0.589938 6.936910 -0.235937 0.669645 0.000000 0.000000 0.000000 6.937389 -0.235861 0.665620 -2.291983 -0.321894 -0.077426 0.000000 0.000000 0.000000 6.937389 -0.235861 0.665620 2.902706 -10.588568 -5.829103 -8.209357 -14.344545 -51.118150 60.161399 -67.419909 62.302472 0.000000 0.000000 0.000000 6.937389 -0.235861 0.665620 8.526237 -2.817776 17.544558 -14.887941 15.974353 49.852362 73.640047 71.996744 -68.447846 0.000000 0.000000 0.000000 
0.431279 84.768936 3.204617 0.000000 0.000000 0.000000 -14.441653 5.301265 -0.065617 -21.080856 -5.338142 16.431815 61.028054 -1.911961 0.172991 -24.701849 -0.342491 -14.380617 0.000000 0.000000 0.000000 -14.441653 5.301265 -0.065617 -12.395801 -8.823668 -18.385524 58.469534 1.430686 -0.200232 -29.944451 -5.582125 13.299540 0.000000 0.000000 0.000000 -14.441653 5.301265 -0.065617 0.000000 0.000000 0.000000 19.942283 -0.037984 0.603992 6.859900 -0.215376 0.706538 0.000000 0.000000 0.000000 6.860397 -0.214906 0.702567 -2.017243 -0.319196 -0.073308 0.000000 0.000000 0.000000 6.860397 -0.214906 0.702567 2.716206 -11.145142 -5.585057 -5.496233 -15.198378 -47.419138 55.102411 -70.340416 57.044958 0.000000 0.000000 0.000000 6.860397 -0.214906 0.702567 8.286196 -2.758856 16.580918 -12.144169 16.387017 47.229112 69.497455 76.272080 -64.526696 0.000000 0.000000 0.000000 
0.461584 84.922363 3.268427 0.000000 0.000000 0.000000 -14.669505 5.486181 -0.046926 -20.640799 -5.434250 16.349697 60.657004 -1.902225 0.171667 -24.560629 -0.337473 -14.348754 0.000000 0.000000 0.000000 -14.669505 5.486181 -0.046926 -11.731515 -9.039790 -18.306416 57.890580 1.420766 -0.194982 -29.791899 -5.686556 13.311981 0.000000 0.000000 0.000000 -14.669505 5.486181 -0.046926 0.000001 0.000000 0.000000 19.884342 -0.032820 0.609725 6.762318 -0.208084 0.726399 0.000000 0.000000 0.000000 6.762805 -0.207267 0.722387 -1.616471 -0.307514 -0.066406 0.000000 0.000000 0.000000 6.762805 -0.207267 0.722387 2.544758 -11.924330 -5.012376 -2.210822 -15.470080 -43.103152 47.070505 -73.606927 48.903007 0.000000 0.000000 0.000000 6.762805 -0.207267 0.722387 7.952832 -2.678386 15.451565 -8.812174 16.564505 44.063439 59.994025 80.820863 -55.277267 0.000000 0.000000 0.000000 
